<svg xmlns="http://www.w3.org/2000/svg" style="cursor: move;" width="2560" height="1338"><g transform="translate(3,2) scale(1)"><path class="link" style="stroke-width: 1.27194px; stroke-opacity: 0.978413; stroke: rgb(80, 80, 80);" marker-end="" d="M1004,579, 1231,519"></path><path class="link" style="stroke-width: 0.536154px; stroke-opacity: 0.412426; stroke: rgb(80, 80, 80);" marker-end="" d="M1004,579, 1231,559"></path><path class="link" style="stroke-width: 0.0426856px; stroke-opacity: 0.032835; stroke: rgb(80, 80, 80);" marker-end="" d="M1004,579, 1231,599"></path><path class="link" style="stroke-width: 0.704444px; stroke-opacity: 0.54188; stroke: rgb(80, 80, 80);" marker-end="" d="M1004,579, 1231,639"></path><path class="link" style="stroke-width: 1.02902px; stroke-opacity: 0.791556; stroke: rgb(80, 80, 80);" marker-end="" d="M1004,579, 1231,679"></path><path class="link" style="stroke-width: 0.830975px; stroke-opacity: 0.639212; stroke: rgb(80, 80, 80);" marker-end="" d="M1004,579, 1231,719"></path><path class="link" style="stroke-width: 0.640763px; stroke-opacity: 0.492895; stroke: rgb(80, 80, 80);" marker-end="" d="M1004,579, 1231,759"></path><path class="link" style="stroke-width: 0.50834px; stroke-opacity: 0.39103; stroke: rgb(80, 80, 80);" marker-end="" d="M1004,579, 1231,799"></path><path class="link" style="stroke-width: 1.00036px; stroke-opacity: 0.769507; stroke: rgb(80, 80, 80);" marker-end="" d="M1004,579, 1231,839"></path><path class="link" style="stroke-width: 0.88195px; stroke-opacity: 0.678423; stroke: rgb(80, 80, 80);" marker-end="" d="M1004,619, 1231,519"></path><path class="link" style="stroke-width: 0.133374px; stroke-opacity: 0.102595; stroke: rgb(80, 80, 80);" marker-end="" d="M1004,619, 1231,559"></path><path class="link" style="stroke-width: 0.340762px; stroke-opacity: 0.262125; stroke: rgb(80, 80, 80);" marker-end="" d="M1004,619, 1231,599"></path><path class="link" style="stroke-width: 0.618614px; stroke-opacity: 0.475857; stroke: rgb(80, 80, 80);" marker-end="" d="M1004,619, 1231,639"></path><path class="link" style="stroke-width: 0.259862px; stroke-opacity: 0.199894; stroke: rgb(80, 80, 80);" marker-end="" d="M1004,619, 1231,679"></path><path class="link" style="stroke-width: 1.19242px; stroke-opacity: 0.917249; stroke: rgb(80, 80, 80);" marker-end="" d="M1004,619, 1231,719"></path><path class="link" style="stroke-width: 0.549895px; stroke-opacity: 0.422997; stroke: rgb(80, 80, 80);" marker-end="" d="M1004,619, 1231,759"></path><path class="link" style="stroke-width: 0.490323px; stroke-opacity: 0.377172; stroke: rgb(80, 80, 80);" marker-end="" d="M1004,619, 1231,799"></path><path class="link" style="stroke-width: 1.06557px; stroke-opacity: 0.819667; stroke: rgb(80, 80, 80);" marker-end="" d="M1004,619, 1231,839"></path><path class="link" style="stroke-width: 1.02801px; stroke-opacity: 0.790779; stroke: rgb(80, 80, 80);" marker-end="" d="M1004,659, 1231,519"></path><path class="link" style="stroke-width: 0.884175px; stroke-opacity: 0.680135; stroke: rgb(80, 80, 80);" marker-end="" d="M1004,659, 1231,559"></path><path class="link" style="stroke-width: 0.467465px; stroke-opacity: 0.359588; stroke: rgb(80, 80, 80);" marker-end="" d="M1004,659, 1231,599"></path><path class="link" style="stroke-width: 1.25399px; stroke-opacity: 0.96461; stroke: rgb(80, 80, 80);" marker-end="" d="M1004,659, 1231,639"></path><path class="link" style="stroke-width: 0.853216px; stroke-opacity: 0.65632; stroke: rgb(80, 80, 80);" marker-end="" d="M1004,659, 1231,679"></path><path class="link" style="stroke-width: 0.663085px; stroke-opacity: 0.510066; stroke: rgb(80, 80, 80);" marker-end="" d="M1004,659, 1231,719"></path><path class="link" style="stroke-width: 1.17744px; stroke-opacity: 0.905726; stroke: rgb(80, 80, 80);" marker-end="" d="M1004,659, 1231,759"></path><path class="link" style="stroke-width: 0.384117px; stroke-opacity: 0.295475; stroke: rgb(80, 80, 80);" marker-end="" d="M1004,659, 1231,799"></path><path class="link" style="stroke-width: 0.286675px; stroke-opacity: 0.22052; stroke: rgb(80, 80, 80);" marker-end="" d="M1004,659, 1231,839"></path><path class="link" style="stroke-width: 0.0832387px; stroke-opacity: 0.0640298; stroke: rgb(80, 80, 80);" marker-end="" d="M1004,699, 1231,519"></path><path class="link" style="stroke-width: 1.0552px; stroke-opacity: 0.811692; stroke: rgb(80, 80, 80);" marker-end="" d="M1004,699, 1231,559"></path><path class="link" style="stroke-width: 0.276213px; stroke-opacity: 0.212471; stroke: rgb(80, 80, 80);" marker-end="" d="M1004,699, 1231,599"></path><path class="link" style="stroke-width: 0.949494px; stroke-opacity: 0.73038; stroke: rgb(80, 80, 80);" marker-end="" d="M1004,699, 1231,639"></path><path class="link" style="stroke-width: 0.0795707px; stroke-opacity: 0.0612082; stroke: rgb(80, 80, 80);" marker-end="" d="M1004,699, 1231,679"></path><path class="link" style="stroke-width: 1.22582px; stroke-opacity: 0.942938; stroke: rgb(80, 80, 80);" marker-end="" d="M1004,699, 1231,719"></path><path class="link" style="stroke-width: 0.200094px; stroke-opacity: 0.153919; stroke: rgb(80, 80, 80);" marker-end="" d="M1004,699, 1231,759"></path><path class="link" style="stroke-width: 0.386914px; stroke-opacity: 0.297627; stroke: rgb(80, 80, 80);" marker-end="" d="M1004,699, 1231,799"></path><path class="link" style="stroke-width: 0.284039px; stroke-opacity: 0.218492; stroke: rgb(80, 80, 80);" marker-end="" d="M1004,699, 1231,839"></path><path class="link" style="stroke-width: 1.14692px; stroke-opacity: 0.882248; stroke: rgb(80, 80, 80);" marker-end="" d="M1004,739, 1231,519"></path><path class="link" style="stroke-width: 1.06049px; stroke-opacity: 0.815762; stroke: rgb(80, 80, 80);" marker-end="" d="M1004,739, 1231,559"></path><path class="link" style="stroke-width: 1.17777px; stroke-opacity: 0.905977; stroke: rgb(80, 80, 80);" marker-end="" d="M1004,739, 1231,599"></path><path class="link" style="stroke-width: 0.0265212px; stroke-opacity: 0.020401; stroke: rgb(80, 80, 80);" marker-end="" d="M1004,739, 1231,639"></path><path class="link" style="stroke-width: 1.2713px; stroke-opacity: 0.977921; stroke: rgb(80, 80, 80);" marker-end="" d="M1004,739, 1231,679"></path><path class="link" style="stroke-width: 0.514147px; stroke-opacity: 0.395498; stroke: rgb(80, 80, 80);" marker-end="" d="M1004,739, 1231,719"></path><path class="link" style="stroke-width: 0.788181px; stroke-opacity: 0.606293; stroke: rgb(80, 80, 80);" marker-end="" d="M1004,739, 1231,759"></path><path class="link" style="stroke-width: 0.24134px; stroke-opacity: 0.185646; stroke: rgb(80, 80, 80);" marker-end="" d="M1004,739, 1231,799"></path><path class="link" style="stroke-width: 0.0330992px; stroke-opacity: 0.0254609; stroke: rgb(80, 80, 80);" marker-end="" d="M1004,739, 1231,839"></path><path class="link" style="stroke-width: 0.84543px; stroke-opacity: 0.650331; stroke: rgb(80, 80, 80);" marker-end="" d="M1231,479, 1458,519"></path><path class="link" style="stroke-width: 0.89806px; stroke-opacity: 0.690815; stroke: rgb(80, 80, 80);" marker-end="" d="M1231,479, 1458,559"></path><path class="link" style="stroke-width: 0.133954px; stroke-opacity: 0.103041; stroke: rgb(80, 80, 80);" marker-end="" d="M1231,479, 1458,599"></path><path class="link" style="stroke-width: 0.190215px; stroke-opacity: 0.146319; stroke: rgb(80, 80, 80);" marker-end="" d="M1231,479, 1458,639"></path><path class="link" style="stroke-width: 0.0868126px; stroke-opacity: 0.0667789; stroke: rgb(80, 80, 80);" marker-end="" d="M1231,479, 1458,679"></path><path class="link" style="stroke-width: 0.716521px; stroke-opacity: 0.55117; stroke: rgb(80, 80, 80);" marker-end="" d="M1231,479, 1458,719"></path><path class="link" style="stroke-width: 0.2009px; stroke-opacity: 0.154539; stroke: rgb(80, 80, 80);" marker-end="" d="M1231,479, 1458,759"></path><path class="link" style="stroke-width: 0.865139px; stroke-opacity: 0.665491; stroke: rgb(80, 80, 80);" marker-end="" d="M1231,479, 1458,799"></path><path class="link" style="stroke-width: 0.808112px; stroke-opacity: 0.621624; stroke: rgb(80, 80, 80);" marker-end="" d="M1231,479, 1458,839"></path><path class="link" style="stroke-width: 0.245127px; stroke-opacity: 0.188559; stroke: rgb(80, 80, 80);" marker-end="" d="M1231,519, 1458,519"></path><path class="link" style="stroke-width: 0.855032px; stroke-opacity: 0.657717; stroke: rgb(80, 80, 80);" marker-end="" d="M1231,519, 1458,559"></path><path class="link" style="stroke-width: 1.10506px; stroke-opacity: 0.850046; stroke: rgb(80, 80, 80);" marker-end="" d="M1231,519, 1458,599"></path><path class="link" style="stroke-width: 0.306417px; stroke-opacity: 0.235705; stroke: rgb(80, 80, 80);" marker-end="" d="M1231,519, 1458,639"></path><path class="link" style="stroke-width: 0.142301px; stroke-opacity: 0.109462; stroke: rgb(80, 80, 80);" marker-end="" d="M1231,519, 1458,679"></path><path class="link" style="stroke-width: 0.845323px; stroke-opacity: 0.650248; stroke: rgb(80, 80, 80);" marker-end="" d="M1231,519, 1458,719"></path><path class="link" style="stroke-width: 0.0817094px; stroke-opacity: 0.0628534; stroke: rgb(80, 80, 80);" marker-end="" d="M1231,519, 1458,759"></path><path class="link" style="stroke-width: 0.441255px; stroke-opacity: 0.339427; stroke: rgb(80, 80, 80);" marker-end="" d="M1231,519, 1458,799"></path><path class="link" style="stroke-width: 0.395427px; stroke-opacity: 0.304175; stroke: rgb(80, 80, 80);" marker-end="" d="M1231,519, 1458,839"></path><path class="link" style="stroke-width: 0.201111px; stroke-opacity: 0.154701; stroke: rgb(80, 80, 80);" marker-end="" d="M1231,559, 1458,519"></path><path class="link" style="stroke-width: 1.18586px; stroke-opacity: 0.912201; stroke: rgb(80, 80, 80);" marker-end="" d="M1231,559, 1458,559"></path><path class="link" style="stroke-width: 1.26525px; stroke-opacity: 0.97327; stroke: rgb(80, 80, 80);" marker-end="" d="M1231,559, 1458,599"></path><path class="link" style="stroke-width: 0.170192px; stroke-opacity: 0.130917; stroke: rgb(80, 80, 80);" marker-end="" d="M1231,559, 1458,639"></path><path class="link" style="stroke-width: 1.28892px; stroke-opacity: 0.991477; stroke: rgb(80, 80, 80);" marker-end="" d="M1231,559, 1458,679"></path><path class="link" style="stroke-width: 0.0201232px; stroke-opacity: 0.0154794; stroke: rgb(80, 80, 80);" marker-end="" d="M1231,559, 1458,719"></path><path class="link" style="stroke-width: 1.20278px; stroke-opacity: 0.925214; stroke: rgb(80, 80, 80);" marker-end="" d="M1231,559, 1458,759"></path><path class="link" style="stroke-width: 0.231744px; stroke-opacity: 0.178265; stroke: rgb(80, 80, 80);" marker-end="" d="M1231,559, 1458,799"></path><path class="link" style="stroke-width: 0.225817px; stroke-opacity: 0.173706; stroke: rgb(80, 80, 80);" marker-end="" d="M1231,559, 1458,839"></path><path class="link" style="stroke-width: 0.7974px; stroke-opacity: 0.613385; stroke: rgb(80, 80, 80);" marker-end="" d="M1231,599, 1458,519"></path><path class="link" style="stroke-width: 0.670285px; stroke-opacity: 0.515604; stroke: rgb(80, 80, 80);" marker-end="" d="M1231,599, 1458,559"></path><path class="link" style="stroke-width: 0.398778px; stroke-opacity: 0.306753; stroke: rgb(80, 80, 80);" marker-end="" d="M1231,599, 1458,599"></path><path class="link" style="stroke-width: 0.245555px; stroke-opacity: 0.188888; stroke: rgb(80, 80, 80);" marker-end="" d="M1231,599, 1458,639"></path><path class="link" style="stroke-width: 0.655849px; stroke-opacity: 0.504499; stroke: rgb(80, 80, 80);" marker-end="" d="M1231,599, 1458,679"></path><path class="link" style="stroke-width: 0.284572px; stroke-opacity: 0.218902; stroke: rgb(80, 80, 80);" marker-end="" d="M1231,599, 1458,719"></path><path class="link" style="stroke-width: 0.888926px; stroke-opacity: 0.683789; stroke: rgb(80, 80, 80);" marker-end="" d="M1231,599, 1458,759"></path><path class="link" style="stroke-width: 0.767616px; stroke-opacity: 0.590474; stroke: rgb(80, 80, 80);" marker-end="" d="M1231,599, 1458,799"></path><path class="link" style="stroke-width: 1.25789px; stroke-opacity: 0.96761; stroke: rgb(80, 80, 80);" marker-end="" d="M1231,599, 1458,839"></path><path class="link" style="stroke-width: 1.24605px; stroke-opacity: 0.958498; stroke: rgb(80, 80, 80);" marker-end="" d="M1231,639, 1458,519"></path><path class="link" style="stroke-width: 1.01936px; stroke-opacity: 0.784122; stroke: rgb(80, 80, 80);" marker-end="" d="M1231,639, 1458,559"></path><path class="link" style="stroke-width: 1.15013px; stroke-opacity: 0.884712; stroke: rgb(80, 80, 80);" marker-end="" d="M1231,639, 1458,599"></path><path class="link" style="stroke-width: 0.683176px; stroke-opacity: 0.52552; stroke: rgb(80, 80, 80);" marker-end="" d="M1231,639, 1458,639"></path><path class="link" style="stroke-width: 0.847931px; stroke-opacity: 0.652254; stroke: rgb(80, 80, 80);" marker-end="" d="M1231,639, 1458,679"></path><path class="link" style="stroke-width: 0.119265px; stroke-opacity: 0.0917426; stroke: rgb(80, 80, 80);" marker-end="" d="M1231,639, 1458,719"></path><path class="link" style="stroke-width: 0.308603px; stroke-opacity: 0.237387; stroke: rgb(80, 80, 80);" marker-end="" d="M1231,639, 1458,759"></path><path class="link" style="stroke-width: 0.557383px; stroke-opacity: 0.428756; stroke: rgb(80, 80, 80);" marker-end="" d="M1231,639, 1458,799"></path><path class="link" style="stroke-width: 0.866799px; stroke-opacity: 0.666768; stroke: rgb(80, 80, 80);" marker-end="" d="M1231,639, 1458,839"></path><path class="link" style="stroke-width: 0.450521px; stroke-opacity: 0.346554; stroke: rgb(80, 80, 80);" marker-end="" d="M1231,679, 1458,519"></path><path class="link" style="stroke-width: 1.09296px; stroke-opacity: 0.840737; stroke: rgb(80, 80, 80);" marker-end="" d="M1231,679, 1458,559"></path><path class="link" style="stroke-width: 0.0397607px; stroke-opacity: 0.0305851; stroke: rgb(80, 80, 80);" marker-end="" d="M1231,679, 1458,599"></path><path class="link" style="stroke-width: 1.1652px; stroke-opacity: 0.896307; stroke: rgb(80, 80, 80);" marker-end="" d="M1231,679, 1458,639"></path><path class="link" style="stroke-width: 1.09935px; stroke-opacity: 0.845654; stroke: rgb(80, 80, 80);" marker-end="" d="M1231,679, 1458,679"></path><path class="link" style="stroke-width: 0.01202px; stroke-opacity: 0.00924614; stroke: rgb(80, 80, 80);" marker-end="" d="M1231,679, 1458,719"></path><path class="link" style="stroke-width: 0.518567px; stroke-opacity: 0.398898; stroke: rgb(80, 80, 80);" marker-end="" d="M1231,679, 1458,759"></path><path class="link" style="stroke-width: 0.44575px; stroke-opacity: 0.342884; stroke: rgb(80, 80, 80);" marker-end="" d="M1231,679, 1458,799"></path><path class="link" style="stroke-width: 0.95067px; stroke-opacity: 0.731285; stroke: rgb(80, 80, 80);" marker-end="" d="M1231,679, 1458,839"></path><path class="link" style="stroke-width: 0.439508px; stroke-opacity: 0.338083; stroke: rgb(80, 80, 80);" marker-end="" d="M1231,719, 1458,519"></path><path class="link" style="stroke-width: 0.908452px; stroke-opacity: 0.698809; stroke: rgb(80, 80, 80);" marker-end="" d="M1231,719, 1458,559"></path><path class="link" style="stroke-width: 0.425724px; stroke-opacity: 0.32748; stroke: rgb(80, 80, 80);" marker-end="" d="M1231,719, 1458,599"></path><path class="link" style="stroke-width: 0.408269px; stroke-opacity: 0.314053; stroke: rgb(80, 80, 80);" marker-end="" d="M1231,719, 1458,639"></path><path class="link" style="stroke-width: 0.454656px; stroke-opacity: 0.349736; stroke: rgb(80, 80, 80);" marker-end="" d="M1231,719, 1458,679"></path><path class="link" style="stroke-width: 1.14245px; stroke-opacity: 0.878805; stroke: rgb(80, 80, 80);" marker-end="" d="M1231,719, 1458,719"></path><path class="link" style="stroke-width: 0.37889px; stroke-opacity: 0.291453; stroke: rgb(80, 80, 80);" marker-end="" d="M1231,719, 1458,759"></path><path class="link" style="stroke-width: 0.664165px; stroke-opacity: 0.510896; stroke: rgb(80, 80, 80);" marker-end="" d="M1231,719, 1458,799"></path><path class="link" style="stroke-width: 0.678645px; stroke-opacity: 0.522034; stroke: rgb(80, 80, 80);" marker-end="" d="M1231,719, 1458,839"></path><path class="link" style="stroke-width: 0.0660998px; stroke-opacity: 0.050846; stroke: rgb(80, 80, 80);" marker-end="" d="M1231,759, 1458,519"></path><path class="link" style="stroke-width: 1.19455px; stroke-opacity: 0.918885; stroke: rgb(80, 80, 80);" marker-end="" d="M1231,759, 1458,559"></path><path class="link" style="stroke-width: 1.03619px; stroke-opacity: 0.797068; stroke: rgb(80, 80, 80);" marker-end="" d="M1231,759, 1458,599"></path><path class="link" style="stroke-width: 0.842051px; stroke-opacity: 0.647732; stroke: rgb(80, 80, 80);" marker-end="" d="M1231,759, 1458,639"></path><path class="link" style="stroke-width: 0.105153px; stroke-opacity: 0.080887; stroke: rgb(80, 80, 80);" marker-end="" d="M1231,759, 1458,679"></path><path class="link" style="stroke-width: 0.817231px; stroke-opacity: 0.628639; stroke: rgb(80, 80, 80);" marker-end="" d="M1231,759, 1458,719"></path><path class="link" style="stroke-width: 0.994734px; stroke-opacity: 0.76518; stroke: rgb(80, 80, 80);" marker-end="" d="M1231,759, 1458,759"></path><path class="link" style="stroke-width: 1.22392px; stroke-opacity: 0.941475; stroke: rgb(80, 80, 80);" marker-end="" d="M1231,759, 1458,799"></path><path class="link" style="stroke-width: 0.0433254px; stroke-opacity: 0.0333272; stroke: rgb(80, 80, 80);" marker-end="" d="M1231,759, 1458,839"></path><path class="link" style="stroke-width: 0.724323px; stroke-opacity: 0.557172; stroke: rgb(80, 80, 80);" marker-end="" d="M1231,799, 1458,519"></path><path class="link" style="stroke-width: 0.69542px; stroke-opacity: 0.534938; stroke: rgb(80, 80, 80);" marker-end="" d="M1231,799, 1458,559"></path><path class="link" style="stroke-width: 1.19874px; stroke-opacity: 0.922107; stroke: rgb(80, 80, 80);" marker-end="" d="M1231,799, 1458,599"></path><path class="link" style="stroke-width: 0.316754px; stroke-opacity: 0.243657; stroke: rgb(80, 80, 80);" marker-end="" d="M1231,799, 1458,639"></path><path class="link" style="stroke-width: 0.93567px; stroke-opacity: 0.719746; stroke: rgb(80, 80, 80);" marker-end="" d="M1231,799, 1458,679"></path><path class="link" style="stroke-width: 0.546548px; stroke-opacity: 0.420422; stroke: rgb(80, 80, 80);" marker-end="" d="M1231,799, 1458,719"></path><path class="link" style="stroke-width: 0.548278px; stroke-opacity: 0.421753; stroke: rgb(80, 80, 80);" marker-end="" d="M1231,799, 1458,759"></path><path class="link" style="stroke-width: 1.29797px; stroke-opacity: 0.998439; stroke: rgb(80, 80, 80);" marker-end="" d="M1231,799, 1458,799"></path><path class="link" style="stroke-width: 0.418212px; stroke-opacity: 0.321702; stroke: rgb(80, 80, 80);" marker-end="" d="M1231,799, 1458,839"></path><path class="link" style="stroke-width: 0.244346px; stroke-opacity: 0.187958; stroke: rgb(80, 80, 80);" marker-end="" d="M1231,839, 1458,519"></path><path class="link" style="stroke-width: 0.212669px; stroke-opacity: 0.163592; stroke: rgb(80, 80, 80);" marker-end="" d="M1231,839, 1458,559"></path><path class="link" style="stroke-width: 0.446781px; stroke-opacity: 0.343678; stroke: rgb(80, 80, 80);" marker-end="" d="M1231,839, 1458,599"></path><path class="link" style="stroke-width: 1.0366px; stroke-opacity: 0.797384; stroke: rgb(80, 80, 80);" marker-end="" d="M1231,839, 1458,639"></path><path class="link" style="stroke-width: 0.555974px; stroke-opacity: 0.427673; stroke: rgb(80, 80, 80);" marker-end="" d="M1231,839, 1458,679"></path><path class="link" style="stroke-width: 0.597554px; stroke-opacity: 0.459657; stroke: rgb(80, 80, 80);" marker-end="" d="M1231,839, 1458,719"></path><path class="link" style="stroke-width: 0.0606865px; stroke-opacity: 0.0466819; stroke: rgb(80, 80, 80);" marker-end="" d="M1231,839, 1458,759"></path><path class="link" style="stroke-width: 1.11878px; stroke-opacity: 0.860602; stroke: rgb(80, 80, 80);" marker-end="" d="M1231,839, 1458,799"></path><path class="link" style="stroke-width: 0.20483px; stroke-opacity: 0.157562; stroke: rgb(80, 80, 80);" marker-end="" d="M1231,839, 1458,839"></path><path class="link" style="stroke-width: 0.105429px; stroke-opacity: 0.0810994; stroke: rgb(80, 80, 80);" marker-end="" d="M1458,479, 1685,659"></path><path class="link" style="stroke-width: 0.362453px; stroke-opacity: 0.27881; stroke: rgb(80, 80, 80);" marker-end="" d="M1458,519, 1685,659"></path><path class="link" style="stroke-width: 0.906786px; stroke-opacity: 0.697528; stroke: rgb(80, 80, 80);" marker-end="" d="M1458,559, 1685,659"></path><path class="link" style="stroke-width: 0.69597px; stroke-opacity: 0.535361; stroke: rgb(80, 80, 80);" marker-end="" d="M1458,599, 1685,659"></path><path class="link" style="stroke-width: 0.580118px; stroke-opacity: 0.446244; stroke: rgb(80, 80, 80);" marker-end="" d="M1458,639, 1685,659"></path><path class="link" style="stroke-width: 0.135933px; stroke-opacity: 0.104564; stroke: rgb(80, 80, 80);" marker-end="" d="M1458,679, 1685,659"></path><path class="link" style="stroke-width: 0.438478px; stroke-opacity: 0.337291; stroke: rgb(80, 80, 80);" marker-end="" d="M1458,719, 1685,659"></path><path class="link" style="stroke-width: 0.119914px; stroke-opacity: 0.0922417; stroke: rgb(80, 80, 80);" marker-end="" d="M1458,759, 1685,659"></path><path class="link" style="stroke-width: 0.972709px; stroke-opacity: 0.748237; stroke: rgb(80, 80, 80);" marker-end="" d="M1458,799, 1685,659"></path><path class="link" style="stroke-width: 0.420773px; stroke-opacity: 0.323671; stroke: rgb(80, 80, 80);" marker-end="" d="M1458,839, 1685,659"></path><circle r="10" class="node" id="0_0" style="fill: rgb(255, 255, 255); stroke: rgb(51, 51, 51);" cx="1004" cy="579"></circle><circle r="10" class="node" id="0_1" style="fill: rgb(255, 255, 255); stroke: rgb(51, 51, 51);" cx="1004" cy="619"></circle><circle r="10" class="node" id="0_2" style="fill: rgb(255, 255, 255); stroke: rgb(51, 51, 51);" cx="1004" cy="659"></circle><circle r="10" class="node" id="0_3" style="fill: rgb(255, 255, 255); stroke: rgb(51, 51, 51);" cx="1004" cy="699"></circle><circle r="10" class="node" id="0_4" style="fill: rgb(255, 255, 255); stroke: rgb(51, 51, 51);" cx="1004" cy="739"></circle><circle r="10" class="node" id="1_0" style="fill: rgb(255, 255, 255); stroke: rgb(51, 51, 51);" cx="1231" cy="479"></circle><circle r="10" class="node" id="1_1" style="fill: rgb(255, 255, 255); stroke: rgb(51, 51, 51);" cx="1231" cy="519"></circle><circle r="10" class="node" id="1_2" style="fill: rgb(255, 255, 255); stroke: rgb(51, 51, 51);" cx="1231" cy="559"></circle><circle r="10" class="node" id="1_3" style="fill: rgb(255, 255, 255); stroke: rgb(51, 51, 51);" cx="1231" cy="599"></circle><circle r="10" class="node" id="1_4" style="fill: rgb(255, 255, 255); stroke: rgb(51, 51, 51);" cx="1231" cy="639"></circle><circle r="10" class="node" id="1_5" style="fill: rgb(255, 255, 255); stroke: rgb(51, 51, 51);" cx="1231" cy="679"></circle><circle r="10" class="node" id="1_6" style="fill: rgb(255, 255, 255); stroke: rgb(51, 51, 51);" cx="1231" cy="719"></circle><circle r="10" class="node" id="1_7" style="fill: rgb(255, 255, 255); stroke: rgb(51, 51, 51);" cx="1231" cy="759"></circle><circle r="10" class="node" id="1_8" style="fill: rgb(255, 255, 255); stroke: rgb(51, 51, 51);" cx="1231" cy="799"></circle><circle r="10" class="node" id="1_9" style="fill: rgb(255, 255, 255); stroke: rgb(51, 51, 51);" cx="1231" cy="839"></circle><circle r="10" class="node" id="2_0" style="fill: rgb(255, 255, 255); stroke: rgb(51, 51, 51);" cx="1458" cy="479"></circle><circle r="10" class="node" id="2_1" style="fill: rgb(255, 255, 255); stroke: rgb(51, 51, 51);" cx="1458" cy="519"></circle><circle r="10" class="node" id="2_2" style="fill: rgb(255, 255, 255); stroke: rgb(51, 51, 51);" cx="1458" cy="559"></circle><circle r="10" class="node" id="2_3" style="fill: rgb(255, 255, 255); stroke: rgb(51, 51, 51);" cx="1458" cy="599"></circle><circle r="10" class="node" id="2_4" style="fill: rgb(255, 255, 255); stroke: rgb(51, 51, 51);" cx="1458" cy="639"></circle><circle r="10" class="node" id="2_5" style="fill: rgb(255, 255, 255); stroke: rgb(51, 51, 51);" cx="1458" cy="679"></circle><circle r="10" class="node" id="2_6" style="fill: rgb(255, 255, 255); stroke: rgb(51, 51, 51);" cx="1458" cy="719"></circle><circle r="10" class="node" id="2_7" style="fill: rgb(255, 255, 255); stroke: rgb(51, 51, 51);" cx="1458" cy="759"></circle><circle r="10" class="node" id="2_8" style="fill: rgb(255, 255, 255); stroke: rgb(51, 51, 51);" cx="1458" cy="799"></circle><circle r="10" class="node" id="2_9" style="fill: rgb(255, 255, 255); stroke: rgb(51, 51, 51);" cx="1458" cy="839"></circle><circle r="10" class="node" id="3_0" style="fill: rgb(255, 255, 255); stroke: rgb(51, 51, 51);" cx="1685" cy="659"></circle><text class="text" dy=".35em" style="font-size: 12px;" x="969" y="879">Input Layer ∈ ℝ⁵</text><text class="text" dy=".35em" style="font-size: 12px;" x="1196" y="879">Hidden Layer ∈ ℝ¹⁰</text><text class="text" dy=".35em" style="font-size: 12px;" x="1423" y="879">Hidden Layer ∈ ℝ¹⁰</text><text class="text" dy=".35em" style="font-size: 12px;" x="1650" y="879">Output Layer ∈ ℝ¹</text></g><defs><marker id="arrow" viewBox="0 -5 10 10" markerWidth="7" markerHeight="7" orient="auto" refX="40"><path d="M0,-5L10,0L0,5" style="stroke: rgb(80, 80, 80); fill: rgb(80, 80, 80);"></path></marker></defs></svg>